<svg width="12" height="12" viewBox="0 0 12 12" fill="none" xmlns="http://www.w3.org/2000/svg">
<path d="M5.48749 0.5L5.48749 11.5C5.48749 11.7761 5.71135 12 5.98749 12C6.26363 12 6.48749 11.7761 6.48749 11.5L6.48749 0.500001C6.48749 0.223858 6.26363 3.92543e-07 5.98749 2.52881e-07C5.71135 1.13219e-07 5.48749 0.223858 5.48749 0.5Z" fill="#666666"/>
<path d="M11.5 5.41498L0.5 5.41498C0.223858 5.41498 3.77395e-08 5.63884 8.42937e-08 5.91498C1.30848e-07 6.19112 0.223858 6.41498 0.5 6.41498L11.5 6.41498C11.7761 6.41498 12 6.19112 12 5.91498C12 5.63884 11.7761 5.41498 11.5 5.41498Z" fill="#666666"/>
</svg>
